# xmcd
#
# Track frame offsets:
#	150
#	12758
#	24213
#	37840
#	45381
#	50606
#	56136
#	71389
#	88768
#	106264
#	116503
#	124629
#	135764
#	156610
#	170971
#	189700
#	204082
#	214235
#	229533
#	246361
#
# Disc length: 3379 seconds
#
# Revision: 0
# Processed by: cddbd v1.5.2PL0 Copyright (c) Steve Scherf et al.
# Submitted via: EasyCDDAExtractor 16.0.8.2
#
DISCID=0b0d3114
DTITLE=Συλλογικός δίσκος - Λαϊκός χειμώνας-Γ. Μελίκης 2
DYEAR=1983
DGENRE=Παραδοσιακή
TTITLE0=Χορωδία - Πανάθεμα που χτίσανε [συρτό στα τρία, Στανό Χαλκιδικής]
TTITLE1=Άνευ ερμηνευτού - Συρτός [οργ., Στανό Χαλκιδικής]
TTITLE2=Ζαχαρούδης Γ.-Μελίκης Γ. - Θωμαή [συρτό-καλαματιανό, Στανό Χαλκιδικής]
TTITLE3=Χορωδία - Χριστουγεννιάτικα κάλαντα [Στανό Χαλκιδικής]
TTITLE4=Χορωδία - Χελιδονίσματα [Στανό Χαλκιδικής]
TTITLE5=Χορωδία - Του Λαζάρου [Στανό Χαλκιδικής]
TTITLE6=Καρατζιοβάλης Αγγ.-Βλάχου Φ. - Θέλω να τραγουδήσω-Κυριακίτσα [Πολύγυρο
TTITLE6=ς Χαλκιδικής]
TTITLE7=Άνευ ερμηνευτού - Τσιάμπασι [οργ., Πόντος]
TTITLE8=Άνευ ερμηνευτού - Τικ [οργ., Πόντος]
TTITLE9=Άνευ ερμηνευτού - Τραπανιστός [οργ., Μπάνα Ανατολ. Ρωμυλίας]
TTITLE10=Άνευ ερμηνευτού - Ζερβός [οργ., Μπάνα Ανατολ. Ρωμυλίας]
TTITLE11=Άνευ ερμηνευτού - Σε καινούρια βάρκα μπήκα[οργ. συρ., Α. Ελένη Σ/ών, 
TTITLE11=Κωστί Β. Θρ.]
TTITLE12=Βλάσκος Μ.-χορωδία - Τρίτη 'γεννήθη ο Κωνσταντής [αργό ακρ., Α. Ελένη
TTITLE12=Σ/ών, Κωστί Β. Θρ.]
TTITLE13=Βλάσκος Μ.-Μελίκης Γ. - Κάτω στην Αγια Μαρίνη [συρτό πηδηχτό, Κωστί Β
TTITLE13=Θράκης]
TTITLE14=Σταυρούλης Γ.χορωδία - Ανάμεσα σε δυό βουνά [ζωναράδικο, 40 Εκκλ Α. Θ
TTITLE14=ράκης]
TTITLE15=Άνευ ερμηνευτού - Χασαπιά [οργ., 40 Εκκλ Α. Θράκης]
TTITLE16=Σταυρούλης Γ. - Τσανάκαλε [ιστορικό αργό, 40 Εκκλ Α. Θράκης]
TTITLE17=Σταυρούλης Γ.-χορωδία - Βασιλογιός κάνε χαρά [ζωναράδικο, 40 Εκκλ Α. 
TTITLE17=Θράκης]
TTITLE18=Σταυρούλης Γ.-χορωδία - Πόψα τα πουλιά [βαρύ συρτό, 40 Εκκλ Α. Θράκης
TTITLE18=]
TTITLE19=Άνευ ερμηνευτού - Συμπεθέρα χαβασί ή Μπαμπαίτικο [οργ., 40 Εκκλ Α. Θρ
TTITLE19=άκης]
EXTD=
EXTT0=
EXTT1=
EXTT2=
EXTT3=
EXTT4=
EXTT5=
EXTT6=
EXTT7=
EXTT8=
EXTT9=
EXTT10=
EXTT11=
EXTT12=
EXTT13=
EXTT14=
EXTT15=
EXTT16=
EXTT17=
EXTT18=
EXTT19=
PLAYORDER=
